<svg width="508" height="272" viewBox="0 0 508 272" fill="none" xmlns="http://www.w3.org/2000/svg">
<rect width="508" height="272" rx="5" fill="white"/>
<rect x="72" y="83" width="211" height="123" rx="10" fill="#615CF5"/>
<rect x="72" y="83" width="211" height="123" rx="10" fill="url(#paint0_linear)"/>
<path d="M133.2 185.417C128.003 185.417 122.845 184.512 117.726 182.701C112.687 180.811 108.08 178.015 103.906 174.314L113.947 162.384C116.86 164.746 120.05 166.675 123.514 168.172C126.979 169.668 130.602 170.416 134.382 170.416C138.162 170.416 140.918 169.786 142.65 168.526C144.383 167.266 145.249 165.652 145.249 163.683C145.249 162.344 144.973 161.242 144.422 160.376C143.871 159.431 143.083 158.604 142.06 157.895C141.036 157.186 139.776 156.517 138.28 155.887C136.784 155.257 135.13 154.548 133.319 153.761L123.396 149.508C121.27 148.721 119.183 147.697 117.136 146.437C115.167 145.177 113.435 143.72 111.938 142.067C110.442 140.334 109.222 138.365 108.277 136.16C107.41 133.877 106.977 131.317 106.977 128.482C106.977 125.333 107.647 122.379 108.985 119.623C110.403 116.788 112.332 114.347 114.773 112.3C117.293 110.174 120.286 108.52 123.751 107.339C127.216 106.157 131.035 105.567 135.209 105.567C139.933 105.567 144.501 106.433 148.911 108.165C153.321 109.898 157.297 112.418 160.841 115.725L151.982 126.711C149.304 124.742 146.627 123.246 143.95 122.222C141.272 121.12 138.043 120.568 134.264 120.568C131.35 120.568 128.987 121.159 127.176 122.34C125.444 123.521 124.578 125.254 124.578 127.538C124.578 129.821 125.719 131.593 128.003 132.853C130.366 134.034 133.437 135.294 137.217 136.633L146.548 140.649C151.667 142.539 155.683 145.138 158.597 148.445C161.589 151.753 163.085 156.123 163.085 161.557C163.085 164.785 162.416 167.857 161.077 170.77C159.739 173.605 157.809 176.125 155.289 178.33C152.769 180.456 149.659 182.189 145.958 183.528C142.257 184.787 138.004 185.417 133.2 185.417ZM183.593 184V106.984H210.879C215.053 106.984 218.951 107.417 222.573 108.284C226.274 109.071 229.463 110.449 232.141 112.418C234.897 114.308 237.063 116.867 238.638 120.096C240.213 123.246 241 127.144 241 131.79C241 136.279 240.173 140.177 238.519 143.484C236.945 146.791 234.779 149.508 232.023 151.634C229.267 153.761 226.077 155.336 222.455 156.359C218.832 157.383 214.974 157.895 210.879 157.895H200.957V184H183.593ZM200.957 144.075H209.816C219.266 144.075 223.99 139.98 223.99 131.79C223.99 127.774 222.77 124.939 220.329 123.285C217.966 121.631 214.462 120.805 209.816 120.805H200.957V144.075Z" fill="white"/>
<path d="M267 194.303V93.9043C267 90.2802 269.938 87.3423 273.562 87.3423H310.788C313.304 87.3423 315.599 85.9034 316.695 83.6384L322.954 70.7039C324.05 68.4388 326.344 67 328.86 67H375.63C378.209 67 380.549 68.5107 381.61 70.8612L387.31 83.4811C388.371 85.8315 390.711 87.3423 393.29 87.3423H429.738C433.362 87.3423 436.3 90.2802 436.3 93.9043V194.303C436.3 197.927 433.362 200.865 429.738 200.865H273.562C269.938 200.865 267 197.927 267 194.303Z" fill="white" stroke="black" stroke-width="9.84303"/>
<path d="M317.166 181.989L330.204 99H349.206L335.752 181.989H317.166Z" fill="#615CF5"/>
<path d="M353.933 181.989L366.971 99H385.973L372.519 181.989H353.933Z" fill="#615CF5"/>
<path d="M394.903 131.171H310.6L313.883 112.131H398.054L394.903 131.171Z" fill="#615CF5"/>
<path d="M389.125 168.201H304.822L308.105 149.161H392.276L389.125 168.201Z" fill="#615CF5"/>
<rect x="284.061" y="70.9372" width="24.9357" height="6.56202" fill="black"/>
<defs>
<linearGradient id="paint0_linear" x1="72" y1="144" x2="265" y2="144" gradientUnits="userSpaceOnUse">
<stop stop-color="#4441A3"/>
<stop offset="1" stop-color="#615CF5"/>
</linearGradient>
</defs>
</svg>
